<!-- icon666.com - MILLIONS vector ICONS FREE --><svg version="1.1" id="Capa_1" xmlns="http://www.w3.org/2000/svg" xmlns:xlink="http://www.w3.org/1999/xlink" x="0px" y="0px" viewBox="0 0 512 512" style="enable-background:new 0 0 512 512;" xml:space="preserve"><g><g><g><path d="M447.168,113.237c-0.533-1.301-1.323-2.475-2.304-3.456L338.219,3.136c-0.981-0.981-2.155-1.771-3.456-2.304 C333.483,0.299,332.096,0,330.667,0h-256C68.779,0,64,4.779,64,10.667v490.667C64,507.221,68.779,512,74.667,512h362.667 c5.888,0,10.667-4.779,10.667-10.667v-384C448,115.904,447.701,114.517,447.168,113.237z M341.333,36.416l70.251,70.251h-70.251 V36.416z M426.667,490.667H85.333V21.333H320v96c0,5.888,4.779,10.667,10.667,10.667h96V490.667z"></path><path d="M282.432,150.912c-3.157,1.92-5.099,5.376-5.099,9.088v200.683c-13.568-11.904-32.427-19.349-53.333-19.349 c-41.173,0-74.667,28.715-74.667,64c0,35.285,33.493,64,74.667,64s74.667-28.715,74.667-64V178.752 c33.6,23.211,48.64,57.493,40.576,94.421c-1.259,5.76,2.389,11.435,8.128,12.693c5.781,1.28,11.456-2.368,12.693-8.149 c11.264-51.477-14.485-100.203-67.2-127.211C289.557,148.864,285.611,148.971,282.432,150.912z M224,448 c-29.397,0-53.333-19.136-53.333-42.667c0-23.531,23.936-42.667,53.333-42.667s53.333,19.136,53.333,42.667 C277.333,428.864,253.397,448,224,448z"></path></g></g></g></svg>