<!-- icon666.com - MILLIONS vector ICONS FREE --><svg version="1.1" id="Capa_1" xmlns="http://www.w3.org/2000/svg" xmlns:xlink="http://www.w3.org/1999/xlink" x="0px" y="0px" viewBox="0 0 490.667 490.667" style="enable-background:new 0 0 490.667 490.667;" xml:space="preserve"><g><g><g><path d="M423.424,109.909c-0.043-0.043-0.043-0.085-0.085-0.107l-1.216-1.216c-0.149-0.085-0.213-0.277-0.341-0.363 L316.672,3.136c-1.344-1.344-3.051-2.112-4.864-2.581c-0.448-0.128-0.853-0.192-1.301-0.256C310.037,0.213,309.589,0,309.12,0 H74.453c-5.888,0-10.667,4.779-10.667,10.667V480c0,5.888,4.779,10.667,10.667,10.667h341.333 c5.888,0,10.667-4.779,10.667-10.667V119.403c0.149-0.683,0.427-1.344,0.427-2.069 C426.88,114.325,425.408,111.851,423.424,109.909z M319.787,36.416l70.251,70.251h-70.251V36.416z M405.12,469.333h-320v-448 h213.333v96c0,5.888,4.779,10.667,10.667,10.667h96V469.333z"></path><path d="M297.216,219.243c-0.299-0.619-0.725-1.131-1.152-1.685c-0.469-0.597-0.896-1.173-1.472-1.643 c-0.149-0.128-0.235-0.32-0.405-0.448c-0.341-0.256-0.768-0.32-1.131-0.533c-0.683-0.405-1.344-0.747-2.091-1.003 c-0.597-0.192-1.173-0.256-1.771-0.341c-0.747-0.107-1.451-0.171-2.219-0.107c-0.683,0.064-1.301,0.235-1.963,0.405 c-0.469,0.128-0.939,0.107-1.408,0.299c-0.213,0.085-0.341,0.277-0.533,0.363c-0.619,0.299-1.131,0.747-1.685,1.173 c-0.576,0.448-1.152,0.896-1.621,1.429c-0.149,0.171-0.341,0.256-0.469,0.427l-58.645,78.208l-34.709-17.344 c-5.248-2.603-11.669-0.512-14.315,4.779l-42.667,85.333c-0.043,0.107-0.043,0.213-0.085,0.32 c-0.299,0.64-0.384,1.365-0.555,2.091c-0.149,0.683-0.384,1.344-0.405,2.048c-0.064,0.107-0.128,0.192-0.128,0.32 c0,0.555,0.235,1.024,0.32,1.557c0.107,0.747,0.171,1.472,0.448,2.176c0.256,0.661,0.64,1.216,1.024,1.792 c0.363,0.576,0.661,1.152,1.109,1.664c0.533,0.576,1.173,0.981,1.813,1.408c0.427,0.299,0.725,0.704,1.195,0.939 c0.085,0.043,0.192,0.021,0.299,0.064c1.344,0.661,2.837,1.067,4.459,1.067h213.333c3.584,0,6.933-1.792,8.896-4.8 c1.984-3.008,2.304-6.784,0.917-10.069l-64-149.333C297.515,219.584,297.323,219.456,297.216,219.243z M155.712,362.667 l30.187-60.352l33.131,16.555c4.587,2.283,10.197,1.003,13.312-3.136l52.928-70.571l50.347,117.504H155.712z"></path><path d="M191.787,256c23.531,0,42.667-19.136,42.667-42.667c0-23.531-19.136-42.667-42.667-42.667s-42.667,19.136-42.667,42.667 C149.12,236.864,168.256,256,191.787,256z M191.787,192c11.776,0,21.333,9.579,21.333,21.333 c0,11.755-9.557,21.333-21.333,21.333s-21.333-9.579-21.333-21.333C170.453,201.579,180.011,192,191.787,192z"></path></g></g></g></svg>