<!-- icon666.com - MILLIONS vector ICONS FREE --><svg version="1.1" id="Layer_1" xmlns="http://www.w3.org/2000/svg" xmlns:xlink="http://www.w3.org/1999/xlink" x="0px" y="0px" viewBox="0 0 512 512" style="enable-background:new 0 0 512 512;" xml:space="preserve"><g><g><path d="M439.986,88.845l-81.25-81.257C353.843,2.695,347.336,0,340.416,0H81.13c-9.211,0-16.704,7.493-16.704,16.704v478.592 c0,9.211,7.493,16.704,16.704,16.704h349.74c9.211,0,16.704-7.493,16.704-16.704V107.163 C447.574,100.242,444.88,93.736,439.986,88.845z M432.574,495.296c0,0.939-0.765,1.704-1.704,1.704H81.13 c-0.939,0-1.704-0.765-1.704-1.704V16.704c0-0.939,0.765-1.704,1.704-1.704h250.203v84.537c0,9.211,7.493,16.704,16.704,16.704 h55.222c4.143,0,7.5-3.357,7.5-7.5c0-4.143-3.357-7.5-7.5-7.5h-55.222c-0.939,0-1.704-0.765-1.704-1.704v-82.79 c0.64,0.415,1.244,0.895,1.796,1.447l81.25,81.256c0.001,0.001,0.001,0.001,0.001,0.001c2.06,2.06,3.194,4.798,3.194,7.712 V495.296z"></path></g></g><g><g><path d="M385.415,209.2c-4.343-3.131-9.97-3.988-15.049-2.296h-0.001l-33.235,11.079v-17.206 c0-14.285-11.622-25.907-25.907-25.907H154.759c-14.285,0-25.907,11.622-25.907,25.907V329.63 c0,14.285,11.622,25.907,25.907,25.907h156.464c14.285,0,25.907-11.622,25.907-25.907v-17.206l33.236,11.079 c5.079,1.692,10.706,0.835,15.049-2.296c4.344-3.131,6.937-8.196,6.937-13.551v-84.905 C392.352,217.396,389.759,212.331,385.415,209.2z M376.645,309.038c-0.324,0.232-0.854,0.462-1.535,0.234l-37.979-12.66v-31.408 c0-4.143-3.357-7.5-7.5-7.5s-7.5,3.357-7.5,7.5v64.426c0,6.015-4.893,10.907-10.907,10.907H154.759 c-6.015,0-10.907-4.893-10.907-10.907V200.777c0-6.015,4.893-10.907,10.907-10.907h156.464c6.015,0,10.907,4.893,10.907,10.907 v27.611c0,2.411,1.159,4.675,3.114,6.084c1.956,1.409,4.47,1.793,6.758,1.031l43.107-14.369c0.682-0.228,1.211,0.001,1.535,0.234 c0.322,0.232,0.707,0.661,0.707,1.382v84.906h0.001C377.352,308.377,376.967,308.805,376.645,309.038z"></path></g></g><g><g><path d="M211.273,240.309c-3.582-2.073-8.172-0.852-10.248,2.734c-1.948,3.366-5.57,5.457-9.451,5.457 c-6.015,0-10.907-4.893-10.907-10.907c0-6.014,4.893-10.907,10.907-10.907c4.143,0,7.5-3.357,7.5-7.5s-3.357-7.5-7.5-7.5 c-14.285,0-25.907,11.622-25.907,25.907c0,14.285,11.622,25.907,25.907,25.907c9.216,0,17.813-4.959,22.434-12.943 C216.083,246.972,214.858,242.384,211.273,240.309z"></path></g></g></svg>